<svg width="12" height="12" viewBox="0 0 12 12" fill="none" xmlns="http://www.w3.org/2000/svg">
<g clip-path="url(#clip0)">
<circle cx="7" cy="7" r="7" fill="#020252" fill-opacity="0.03"/>
<path d="M6.00067 12C4.46509 12 2.9295 11.4166 1.76011 10.2483C0.625459 9.11426 0 7.60581 0 6.00034C0 4.39488 0.625459 2.88642 1.76011 1.75235C4.0989 -0.584116 7.90244 -0.584116 10.2399 1.75235C11.3759 2.88642 12 4.39488 12 6.00034C12 7.60581 11.3745 9.11426 10.2399 10.2483C9.07183 11.4166 7.53625 12 6.00067 12ZM6.00067 0.734415C4.64684 0.734415 3.29435 1.24953 2.26395 2.27839C1.26829 3.2731 0.720348 4.59436 0.720348 6.00034C0.720348 7.40632 1.26829 8.72758 2.26395 9.72229C4.32476 11.78 7.67658 11.7814 9.73739 9.72229C10.733 8.72758 11.281 7.40632 11.281 6.00034C11.281 4.59436 10.733 3.2731 9.73739 2.27839C8.70698 1.24953 7.35449 0.734415 6.00067 0.734415Z" fill="white"/>
<path d="M5 5L2.95215 9.04731L7 7L9.04904 2.95337L5 5ZM6.47504 6.47446C6.21309 6.73544 5.78944 6.73544 5.52749 6.47446C5.26555 6.21349 5.26555 5.78855 5.52749 5.52758C5.78944 5.26661 6.21309 5.26661 6.47504 5.52758C6.73564 5.78855 6.73564 6.21212 6.47504 6.47446Z" fill="white"/>
<circle cx="6" cy="6" r="5.5" stroke="white"/>
</g>
<defs>
<clipPath id="clip0">
<rect width="12" height="12" fill="white"/>
</clipPath>
</defs>
</svg>
