<svg width="14" height="12" viewBox="0 0 14 12" fill="none" xmlns="http://www.w3.org/2000/svg">
<path d="M13.2238 0C12.7944 0 12.4476 0.348445 12.4476 0.776222V5.09756C12.4476 5.92667 11.7724 6.60178 10.9433 6.60178H2.70044L5.00111 4.30111C5.30444 3.99778 5.30444 3.50622 5.00111 3.20289C4.69778 2.89956 4.20622 2.89956 3.90289 3.20289L0.227111 6.87867C0.0808889 7.02489 0 7.22244 0 7.42778C0 7.63311 0.0824444 7.83067 0.227111 7.97689L3.90133 11.6511C4.05378 11.8036 4.25133 11.8782 4.45044 11.8782C4.64956 11.8782 4.84867 11.802 4.99956 11.6511C5.30289 11.3478 5.30289 10.8562 4.99956 10.5529L2.604 8.15578H10.9418C12.628 8.15578 14 6.78378 14 5.09756V0.776222C14 0.348445 13.6516 0 13.2238 0Z" fill="#0D0D3D" fill-opacity="0.86"/>
</svg>
