<svg width="14" height="14" viewBox="0 0 14 14" fill="none" xmlns="http://www.w3.org/2000/svg">
<path d="M8.16658 1.16669H3.49992C3.1905 1.16669 2.89375 1.2896 2.67496 1.5084C2.45617 1.72719 2.33325 2.02393 2.33325 2.33335V11.6667C2.33325 11.9761 2.45617 12.2729 2.67496 12.4916C2.89375 12.7104 3.1905 12.8334 3.49992 12.8334H10.4999C10.8093 12.8334 11.1061 12.7104 11.3249 12.4916C11.5437 12.2729 11.6666 11.9761 11.6666 11.6667V4.66669L8.16658 1.16669Z" stroke="white" stroke-linecap="round" stroke-linejoin="round"/>
<path d="M8.16675 1.16669V4.66669H11.6667" stroke="white" stroke-linecap="round" stroke-linejoin="round"/>
<path d="M9.33342 7.58331H4.66675" stroke="white" stroke-linecap="round" stroke-linejoin="round"/>
<path d="M9.33342 9.91669H4.66675" stroke="white" stroke-linecap="round" stroke-linejoin="round"/>
<path d="M5.83341 5.25H5.25008H4.66675" stroke="white" stroke-linecap="round" stroke-linejoin="round"/>
</svg>
