<svg width="88" height="88" viewBox="0 0 88 88" fill="none" xmlns="http://www.w3.org/2000/svg">
<rect width="88" height="88" fill="#020252" fill-opacity="0.02"/>
<path d="M45.358 43.8625H39.7185L36.5292 35.6688H25.7039L22.6508 43.8625H17.1538L27.9727 16H34.5392L45.358 43.8625ZM35.6476 32.425L32.8732 25.1438C32.225 23.325 31.6222 21.3563 31.1166 19.6438H31.0258C30.5202 21.3563 29.9627 23.3937 29.3599 25.1062L26.5401 32.425H35.6476ZM52.3394 22.5437H71.9935V28.075H52.3394V22.5437ZM52.3394 36.9438H71.9935V42.475H52.3394V36.9438ZM16 66.4688H72V72H16V66.4688ZM16 53.0062H72V58.5375H16V53.0062Z" fill="#020252" fill-opacity="0.12"/>
</svg>
